<?xml version="1.0" standalone="no"?><!DOCTYPE svg PUBLIC "-//W3C//DTD SVG 1.1//EN" "http://www.w3.org/Graphics/SVG/1.1/DTD/svg11.dtd"><svg t="1686398522081" class="icon" viewBox="0 0 1024 1024" version="1.1" xmlns="http://www.w3.org/2000/svg" p-id="3197" xmlns:xlink="http://www.w3.org/1999/xlink" width="200" height="200"><path d="M307.0194 136.051734c-56.587889 0-102.3398 45.751911-102.3398 102.3398 0 56.587889 45.751911 102.3398 102.3398 102.3398 56.587889 0 102.3398-45.751911 102.3398-102.3398C409.3592 181.803645 363.60729 136.051734 307.0194 136.051734zM307.0194 272.103469c-18.661964 0-34.313933-15.049971-34.313933-34.313933 0-18.661964 15.049971-34.313933 34.313933-34.313933 18.661964 0 34.313933 15.049971 34.313933 34.313933C341.333333 257.053498 326.283363 272.103469 307.0194 272.103469z" p-id="3198" fill="#515151"></path><path d="M705.542622 567.684891l-127.021752 125.215755c0 0-0.601999 0-0.601999 0.601999-10.23398 10.23398-10.23398 25.885949 0 36.119929 10.23398 10.23398 25.885949 10.23398 36.119929 0 0.601999-0.601999 0.601999-1.805996 1.805996-2.407995l76.453851-76.453851 36.119929-36.119929c0 0 24.681952 23.477954 25.283951 22.875955 9.631981 4.213992 21.069959 3.009994 28.895944-4.815991 10.23398-10.23398 10.23398-25.885949 0-36.119929l-18.059965-18.059965c0 0-3.611993-3.611993-5.417989-5.417989C744.672546 558.05291 722.398589 556.246914 705.542622 567.684891z" p-id="3199" fill="#515151"></path><path d="M807.882422 693.502646l11.437978 11.437978c10.23398 10.23398 25.885949 10.23398 36.119929 0 10.23398-10.23398 10.23398-25.885949 0-36.119929l-11.437978-11.437978 0 0c0 0 0-0.601999-0.601999-0.601999-10.23398-10.23398-25.885949-10.23398-36.119929 0C797.046443 667.014697 797.046443 683.268665 807.882422 693.502646 807.280423 693.502646 807.280423 693.502646 807.882422 693.502646z" p-id="3200" fill="#515151"></path><path d="M951.158142 92.10582l-0.601999 0.601999c-3.009994 6.019988-4.213992 12.039976-3.611993 18.661964 4.213992 55.383892 7.223986 348.557319 7.825985 468.957084 0 18.059965-22.273956 27.089947-34.915932 13.845973l-146.887713-157.723692c-6.621987-15.049971-21.671958-25.885949-39.129924-25.885949-15.651969 0-29.497942 8.427984-36.721928 21.069959l-249.227513 249.227513c-7.223986 5.417989-7.223986 5.417989-15.049971 0L291.367431 565.276896c-7.825985-10.23398-19.865961-17.457966-34.313933-17.457966-7.223986 0-13.845973 1.805996-19.865961 4.815991l-6.621987 4.213992c-2.407995 1.805996-4.213992 3.611993-6.019988 5.417989l-157.121693 150.499706L67.423868 136.653733c0-37.925926 30.70194-68.025867 68.025867-68.025867 0 0 627.282775 1.203998 754.304527 4.213992 13.845973 0 25.885949-7.223986 32.507937-19.865961l0.601999-0.601999c11.437978-22.875955-4.213992-50.567901-29.497942-51.771899-1.805996 0-4.213992 0-6.019988 0L136.653733 0.601999C61.40388 0 0 60.801881 0 136.653733l0 750.692534c0 75.249853 61.40388 136.653733 136.653733 136.653733l750.692534 0c75.249853 0 136.653733-61.40388 136.653733-136.653733L1024 136.653733c0-13.243974-1.805996-25.885949-5.417989-37.925926C1009.552028 66.821869 966.208113 62.607878 951.158142 92.10582zM955.974133 887.346267c0 37.925926-30.70194 68.025867-68.025867 68.025867L136.653733 955.372134c-37.925926 0-68.025867-30.70194-68.025867-68.025867L68.627866 806.678424l181.803645-173.97766c6.019988-5.417989 10.23398-5.417989 16.253968 0l139.663727 114.379777c12.039976 8.427984 25.283951 18.661964 35.517931 18.661964s22.273956-3.611993 35.517931-16.855967l253.441505-253.441505c1.203998 0 2.407995 0.601999 4.213992 0.601999 0.601999 0 0.601999 0 1.203998 0l220.33157 236.585538L956.576132 887.346267z" p-id="3201" fill="#515151"></path></svg>