<?xml version="1.0" standalone="no"?><!DOCTYPE svg PUBLIC "-//W3C//DTD SVG 1.1//EN" "http://www.w3.org/Graphics/SVG/1.1/DTD/svg11.dtd"><svg t="1686398234272" class="icon" viewBox="0 0 1024 1024" version="1.1" xmlns="http://www.w3.org/2000/svg" p-id="2703" xmlns:xlink="http://www.w3.org/1999/xlink" width="200" height="200"><path d="M998.4 358.4c-12.8 6.4-32 12.8-44.8 12.8-38.4 0-76.8-19.2-96-57.6-32-51.2-12.8-115.2 32-147.2-70.4-76.8-160-128-262.4-153.6-6.4 57.6-57.6 102.4-115.2 102.4S403.2 70.4 396.8 12.8c-102.4 25.6-192 76.8-262.4 153.6 44.8 32 57.6 96 32 147.2-19.2 38.4-57.6 57.6-96 57.6-12.8 0-32 0-44.8-12.8C6.4 409.6 0 460.8 0 512s6.4 102.4 25.6 153.6c12.8-6.4 32-12.8 44.8-12.8 38.4 0 76.8 19.2 96 57.6 32 51.2 12.8 115.2-32 147.2 70.4 76.8 160 128 262.4 153.6 6.4-57.6 51.2-102.4 115.2-102.4s108.8 44.8 115.2 102.4c102.4-25.6 192-76.8 262.4-153.6-44.8-32-57.6-96-32-147.2 19.2-38.4 57.6-57.6 96-57.6 12.8 0 32 0 44.8 12.8 19.2-51.2 25.6-102.4 25.6-153.6s-6.4-102.4-25.6-153.6z m-44.8 230.4c-64 0-121.6 32-153.6 89.6-32 57.6-32 121.6 0 172.8-38.4 32-89.6 64-134.4 76.8-32-44.8-89.6-83.2-153.6-83.2s-121.6 32-153.6 89.6c-51.2-19.2-96-44.8-134.4-76.8 32-51.2 32-121.6 0-172.8-32-57.6-89.6-96-153.6-96C64 563.2 64 537.6 64 512s0-51.2 6.4-76.8c64 0 121.6-32 153.6-89.6 32-57.6 32-121.6 0-172.8 38.4-32 83.2-64 134.4-76.8 32 44.8 89.6 83.2 153.6 83.2s121.6-32 153.6-89.6c51.2 19.2 96 44.8 134.4 76.8-32 51.2-32 121.6 0 172.8 32 51.2 89.6 89.6 153.6 89.6 6.4 32 6.4 57.6 6.4 83.2s0 51.2-6.4 76.8zM512 320C403.2 320 320 403.2 320 512s83.2 192 192 192 192-83.2 192-192-83.2-192-192-192z m0 320c-70.4 0-128-57.6-128-128s57.6-128 128-128 128 57.6 128 128-57.6 128-128 128z" fill="#515151" p-id="2704"></path></svg>