<?xml version="1.0" standalone="no"?><!DOCTYPE svg PUBLIC "-//W3C//DTD SVG 1.1//EN" "http://www.w3.org/Graphics/SVG/1.1/DTD/svg11.dtd"><svg t="1686398509810" class="icon" viewBox="0 0 1024 1024" version="1.1" xmlns="http://www.w3.org/2000/svg" p-id="2995" xmlns:xlink="http://www.w3.org/1999/xlink" width="200" height="200"><path d="M918.266075 186.599512h-27.419435v-52.133253c0-34.999049-28.362921-63.376296-63.36197-63.376296H617.628525c-34.999049 0-63.36197 28.376224-63.36197 63.376296v52.133253H105.754391c-54.465364 0-98.777503 44.313163-98.777503 98.770341v459.460494c0 54.457177 44.313163 98.757037 98.777503 98.757038h183.51425c51.647184 66.461558 132.248759 109.323676 222.740569 109.323675 90.486693 0 171.109757-42.862118 222.748755-109.323675h183.50811c54.4582 0 98.757037-44.29986 98.757037-98.757038V285.369853c0-54.457177-44.298837-98.77034-98.757037-98.770341z m-300.63755-52.133253H827.48467v52.133253H617.628525v-52.133253zM512.00921 889.533741c-120.588208 0-218.704657-98.108262-218.704657-218.689307 0-120.597418 98.116449-218.692377 218.704657-218.692377 120.597418 0 218.70568 98.094959 218.70568 218.692377 0 120.581045-98.108262 218.689307-218.70568 218.689307z m406.256865-109.30935H771.997026c14.231091-33.66159 22.093137-70.619243 22.093137-109.379957 0-155.540185-126.527465-282.068673-282.080953-282.068674-155.530975 0-282.072767 126.527465-282.072767 282.068674 0 38.760715 7.869209 75.718368 22.078811 109.379957h-146.260863c-19.507247 0-35.401207-15.892937-35.401207-35.394044v-402.649718h652.216205c11.665667 0 21.122021-9.441004 21.122021-21.106671 0-11.666691-9.45533-21.135324-21.122021-21.135324H70.353184v-14.568781c0-19.528736 15.892937-35.394044 35.401207-35.394045h812.511684c19.51441 0 35.379718 15.865308 35.379718 35.394045v14.568781H841.292113c-11.665667 0-21.120998 9.468633-21.120997 21.135324 0 11.665667 9.454307 21.106671 21.120997 21.106671h112.35368v402.648695c0 19.501107-15.865308 35.395067-35.379718 35.395067z" fill="#515151" p-id="2996"></path><path d="M661.363521 609.60889c-4.424767-10.792789-16.766839-15.935916-27.560651-11.526498-10.792789 4.424767-15.964568 16.766839-11.538778 27.546324 5.875812 14.356957 8.861814 29.560187 8.861814 45.215718 0 65.672591-53.42978 119.101347-119.116696 119.101347-65.679754 0-119.122836-53.428756-119.122837-119.101347 0-65.68794 53.444106-119.116697 119.122837-119.116697 16.091458 0 31.674333 3.141544 46.356701 9.341744 10.736507 4.563937 23.15021-0.493233 27.700844-11.244066 4.523004-10.750833-0.506536-23.13486-11.258393-27.672191-19.908382-8.412583-41.042683-12.667482-62.799152-12.667482-88.977319 0-161.357669 72.366023-161.357669 161.359715 0 88.977319 72.379326 161.370972 161.357669 161.370972 88.979366 0 161.358692-72.393652 161.358692-161.370972 0-21.193652-4.028748-41.792765-12.004381-61.236567z" fill="#515151" p-id="2997"></path><path d="M512.00921 612.975561c-31.955742 0-57.881153 25.897782-57.881153 57.868873 0 31.955742 25.925411 57.8525 57.881153 57.8525 31.956765 0 57.882176-25.897782 57.882176-57.8525 0.001023-31.971092-25.925411-57.868873-57.882176-57.868873z" fill="#515151" p-id="2998"></path></svg>